# xmcd
#
# Track frame offsets: 
#        150
#        17189
#        37775
#        53752
#        69669
#        87107
#        103066
#        127328
#
# Disc length: 2008 seconds
#
# Revision: 0
# Processed by: cddbd v1.5.2PL0 Copyright (c) Steve Scherf et al.
# Submitted via: ExactAudioCopy v0.99pb3
#
DISCID=6707d608
DTITLE=Sister Mojo and The Voodoo Groove - Femme Fatale
DYEAR=2004
DGENRE=Blues
TTITLE0=Blue Voodoo
TTITLE1=Turned To Stone
TTITLE2=Dangerous
TTITLE3=Lake Effect City
TTITLE4=Femme Fatale
TTITLE5=Be Your Frog
TTITLE6=My Lonely Bed
TTITLE7=Cut To The Chase
EXTD=
EXTT0=
EXTT1=
EXTT2=
EXTT3=
EXTT4=
EXTT5=
EXTT6=
EXTT7=
PLAYORDER=
